<svg xmlns="http://www.w3.org/2000/svg" width="439.861" height="184.028" viewBox="0 0 439.861 184.028">
  <g id="Group_9" data-name="Group 9" transform="translate(-159.549 -605.843)">
    <path id="Union_11" data-name="Union 11" d="M2037.542-2531.311l7.65-7.29a14.075,14.075,0,0,0,12.6,8.01c5.31,0,9.27-3.24,9.27-8.28a6.972,6.972,0,0,0-2.34-5.4c-2.25-2.07-5.85-3.24-9.27-4.41-3.15-1.08-6.93-2.52-9.99-5.22-1.98-1.71-4.77-5.04-4.77-11.16,0-8.82,5.94-17.64,19.26-17.64a23.087,23.087,0,0,1,17.01,7.02l-6.12,8.01a11.725,11.725,0,0,0-9.81-5.13c-6.3,0-8.28,3.96-8.28,7.02a5.056,5.056,0,0,0,1.89,4.05c1.44,1.35,3.42,2.07,7.2,3.42,4.68,1.62,9.09,3.24,12.15,6.03,2.7,2.43,5.13,6.48,5.13,12.6,0,11.7-8.46,19.71-20.88,19.71C2047.172-2519.971,2040.692-2526.721,2037.542-2531.311Zm-195.03,2.97c-6.93-6.66-9.63-14.13-9.63-22.95,0-10.89,4.5-18.72,9.63-23.49,6.03-5.67,13.5-7.92,22.05-7.92a30.173,30.173,0,0,1,14.76,3.69v13.68a19.307,19.307,0,0,0-14.49-6.75c-12.06,0-19.89,9.9-19.89,20.97,0,13.32,10.26,20.52,20.34,20.52a18.177,18.177,0,0,0,14.04-6.57v13.68a31.086,31.086,0,0,1-14.85,3.51C1853.942-2519.971,1847.552-2523.571,1842.512-2528.341Zm244.17,1.17a6.916,6.916,0,0,1,7.02-7.02,6.916,6.916,0,0,1,7.02,7.02,6.916,6.916,0,0,1-7.02,7.02A6.916,6.916,0,0,1,2086.682-2527.171Zm-322.038-9.81a.871.871,0,0,1,.851-1.083h.012a17.727,17.727,0,0,0,17.433-14.531.863.863,0,0,1,.8-.723q.508-.023,1.022-.023a22,22,0,0,1,21.737,18.614.9.9,0,0,1-.053.467,22,22,0,0,1-20.462,13.918A22,22,0,0,1,1764.644-2536.981ZM2172-2521.321v-60.03h11.7v60.03Zm-19.44,0-5.31-12.6h-24.21l-5.31,12.6h-12.69l25.83-60.03h9.18l25.11,60.03Zm-25.83-22.14h17.1l-8.55-21.6Zm-115.29,22.14v-49.95h-13.5v-10.08h38.7v10.08h-13.5v49.95Zm-28.8,0-36.54-40.14v40.14h-11.7v-60.03h8.1l36.54,40.05v-40.05h11.7v60.03Zm-92.7,0v-60.03h33.3v10.08h-21.6v13.41h20.7v10.08h-20.7v16.38h21.6v10.08Zm-83.35-18.4a21.218,21.218,0,0,0-20.291-15.025c-.592,0-1.177.027-1.756.076l-.066,0a.729.729,0,0,1-.738-.715c-.3-14.719-5.882-39.789-7.165-50.34a284.874,284.874,0,0,1-1.179-55.986c.126-1.553.3-3,.505-4.343a.732.732,0,0,1,.731-.623.725.725,0,0,1,.525.224c2.942,3.013,8.042,8.8,9.075,10.224a157,157,0,0,1,19.835,35.688c11.974,31.168,13.179,63.5,1.849,81.013a.713.713,0,0,1-.609.335A.744.744,0,0,1,1806.592-2539.72Zm356.86-52.6-14.94-23.67a79.9,79.9,0,0,1-4.14-7.83h-.63a73.991,73.991,0,0,1,1.35,11.07v20.43H2124.3v-60.03h20.79l13.95,22.68a64.673,64.673,0,0,1,5.67,10.62h.63a70.483,70.483,0,0,1-1.89-14.22v-19.08h20.88v60.03Zm-70.29,0v-60.03h21.78v60.03Zm-29.16,0-10.98-19.26a57.324,57.324,0,0,1-2.88-5.76h-.45a30.726,30.726,0,0,1,.45,5.67v19.35h-20.88v-60.03h20.88v18.63a53.29,53.29,0,0,1-.45,7.56h.45a40.786,40.786,0,0,1,3.15-6.75l10.35-19.44h23.58l-18.72,29.43,20.7,30.6Zm-64.98,0-14.94-23.67a79.9,79.9,0,0,1-4.14-7.83h-.63a74.006,74.006,0,0,1,1.35,11.07v20.43h-20.79v-60.03h20.79l13.95,22.68a64.654,64.654,0,0,1,5.67,10.62h.63a70.483,70.483,0,0,1-1.89-14.22v-19.08h20.88v60.03Zm-65.61,0-1.98-7.47h-16.56l-1.62,7.47H1866l-8.64-17.55a9.826,9.826,0,0,1-.81-1.89l-.36.18v19.26h-21.24v-11.538a9.492,9.492,0,0,1-2.459.325,9.444,9.444,0,0,1-3.462-.655,108.013,108.013,0,0,0-17-5.1c-.795-2.348-1.652-4.721-2.547-7.053a160.1,160.1,0,0,0-7.745-17.025c2.977-.244,6-.367,8.983-.367a109.7,109.7,0,0,1,24.23,2.7v-21.321h27.09c6.3,0,12.87.72,18.36,6.21,3.06,3.06,5.67,7.65,5.67,14.76,0,5.31-1.62,8.64-3.33,10.71a14.333,14.333,0,0,1-8.28,4.77v.54a8.436,8.436,0,0,1,3.15,2.79l12.908,19.362L1911-2652.351h24.12l21.42,60.03ZM1891.112-2592.321Zm30.78-33.21-2.97,11.52h8.73l-2.79-11.52a66.5,66.5,0,0,1-1.17-6.75h-.81A31.261,31.261,0,0,1,1921.892-2625.531Zm-65.7-.09h2.52a7.132,7.132,0,0,0,4.59-1.35,4.732,4.732,0,0,0,1.53-3.69,5.416,5.416,0,0,0-1.17-3.6,4.761,4.761,0,0,0-3.69-1.62h-3.78Zm-110.437,21.7a1.74,1.74,0,0,1-.092-1.684,50.48,50.48,0,0,1,6.5-9.765l.007-.009.006-.008c.618-.781,1.255-1.589,1.888-2.419l.063-.082.087-.053a109.529,109.529,0,0,1,19.037-9.159c.189,5.541.52,11.119.986,16.582-2.066.3-4.153.656-6.2,1.072a108.033,108.033,0,0,0-20.127,6.206,1.763,1.763,0,0,1-.686.14A1.734,1.734,0,0,1,1745.754-2603.924Zm61.889-46.556a1.554,1.554,0,0,1-.545-.137,27.351,27.351,0,0,1-11.9-10.514,1.514,1.514,0,0,1-.224-.846,27.231,27.231,0,0,1,27.211-26.271,27.079,27.079,0,0,1,12.881,3.244,1.472,1.472,0,0,1,.732.949,27.209,27.209,0,0,1,.76,6.4,27.235,27.235,0,0,1-27.235,27.235C1808.762-2650.421,1808.2-2650.444,1807.644-2650.48Zm-13.668-2.5a27.844,27.844,0,0,1-8.546-9.972,27.4,27.4,0,0,1-2.281-6.337,27.686,27.686,0,0,1-.664-6.951,27.107,27.107,0,0,1,2.421-10.434,27.737,27.737,0,0,1,6-8.5,27.788,27.788,0,0,1,8.689-5.724,27.167,27.167,0,0,1,10.679-2.1,27.658,27.658,0,0,1,6.436.8,27.46,27.46,0,0,1,5.888,2.2,27.927,27.927,0,0,1,9.4,7.837l.035.022.043.057c.159.208.319.412.473.608a12.869,12.869,0,0,1,1.662,2.507.679.679,0,0,1-.036.657.675.675,0,0,1-.573.319.665.665,0,0,1-.266-.055c-1.115-.469-3.228-1.113-3.447-1.18a51.012,51.012,0,0,0-6.941-.91,26.666,26.666,0,0,0-9.8,1.855,2.618,2.618,0,0,1-.958.181,2.645,2.645,0,0,1-1.945-.859,27.051,27.051,0,0,0-4.26-3.769,27.056,27.056,0,0,0-7.391,5.323,27.067,27.067,0,0,0-5.649,8.385,26.388,26.388,0,0,0-2.142,10.163,26.754,26.754,0,0,0,4.275,14.823.771.771,0,0,1,.034.793.779.779,0,0,1-.679.411A.761.761,0,0,1,1793.975-2652.981Zm-10.565-8.722c-2.95-2.791-3.488-3.814-6.271-6.577a2.672,2.672,0,0,1-.724-2.451,29.758,29.758,0,0,1,4.311-10.723.54.54,0,0,1,.452-.245.56.56,0,0,1,.557.676,28.793,28.793,0,0,0,2.561,18.665.56.56,0,0,1-.507.812A.544.544,0,0,1,1783.41-2661.7Z" transform="translate(-1585.422 3309.342)" stroke="rgba(0,0,0,0)" stroke-miterlimit="10" stroke-width="1"/>
  </g>
</svg>
